Results
version=1
nRows=33
nColumns=21
inDegrees=yes
endheader
time	r_shoulder_elev	r_elbow_flex	r_shoulder_elev_u	r_elbow_flex_u	TRIlong.activation	TRIlong.fiber_length	TRIlat.activation	TRIlat.fiber_length	TRImed.activation	TRImed.fiber_length	BIClong.activation	BIClong.fiber_length	BICshort.activation	BICshort.fiber_length	BRA.activation	BRA.fiber_length	DeltAnt.activation	DeltAnt.fiber_length	DeltPost.activation	DeltPost.fiber_length
      1.01000000	    -44.06826192	      8.85697915	     36.53106299	     20.69892252	      0.08761925	      0.11541563	      0.06208738	      0.07323349	      0.05956000	      0.06834337	      0.05000000	      0.15345027	      0.05000001	      0.16288148	      0.05000001	      0.08684556	      0.05000000	      0.18462064	      0.10700205	      0.06182637
      1.01100000	    -44.03159366	      8.87773691	     36.68714856	     20.76569905	      0.08743149	      0.11543670	      0.06200312	      0.07324183	      0.05950823	      0.06835160	      0.05000000	      0.15343912	      0.05000001	      0.16285684	      0.05000001	      0.08684542	      0.05000000	      0.18460488	      0.10678935	      0.06186964
      1.01200000	    -43.99485903	      8.89852283	     36.84342299	     20.83201986	      0.08724187	      0.11545786	      0.06191822	      0.07325018	      0.05945678	      0.06835984	      0.05000000	      0.15342795	      0.05000001	      0.16283215	      0.05000001	      0.08684527	      0.05000000	      0.18458909	      0.10657686	      0.06191300
      1.01300000	    -43.95791602	      8.91939717	     37.00029055	     20.89690957	      0.08704643	      0.11547925	      0.06183133	      0.07325861	      0.05940635	      0.06836811	      0.05000000	      0.15341670	      0.05000001	      0.16280733	      0.05000001	      0.08684511	      0.05000000	      0.18457320	      0.10636503	      0.06195663
      1.01400000	    -43.92078296	      8.94034594	     37.15818324	     20.95985097	      0.08685471	      0.11550083	      0.06174599	      0.07326708	      0.05935679	      0.06837640	      0.05000000	      0.15340540	      0.05000001	      0.16278239	      0.05000001	      0.08684496	      0.05000000	      0.18455723	      0.10615741	      0.06200048
      1.01500000	    -43.88344653	      8.96137438	     37.31717301	     21.02070733	      0.08666697	      0.11552259	      0.06166229	      0.07327561	      0.05930818	      0.06838472	      0.05000000	      0.15339404	      0.05000001	      0.16275732	      0.05000001	      0.08684480	      0.05000000	      0.18454117	      0.10595430	      0.06204455
      1.01600000	    -43.84611009	      8.98240282	     37.47616278	     21.08156369	      0.08647924	      0.11554435	      0.06157859	      0.07328414	      0.05925957	      0.06839303	      0.05000000	      0.15338267	      0.05000001	      0.16273225	      0.05000001	      0.08684464	      0.05000000	      0.18452511	      0.10575118	      0.06208861
      1.01700000	    -43.80863561	      9.00348613	     37.63452980	     21.14404770	      0.08629408	      0.11556622	      0.06149596	      0.07329269	      0.05921157	      0.06840137	      0.05000000	      0.15337126	      0.05000001	      0.16270708	      0.05000001	      0.08684447	      0.05000000	      0.18450898	      0.10555099	      0.06213284
      1.01800000	    -43.77079087	      9.02471658	     37.79122647	     21.21089732	      0.08611584	      0.11558836	      0.06141619	      0.07330133	      0.05916522	      0.06840975	      0.05000000	      0.15335973	      0.05000001	      0.16268168	      0.05000001	      0.08684430	      0.05000000	      0.18449268	      0.10535861	      0.06217747
      1.01900000	    -43.73294612	      9.04594704	     37.94792314	     21.27774695	      0.08593761	      0.11561051	      0.06133643	      0.07330996	      0.05911887	      0.06841814	      0.05000000	      0.15334820	      0.05000001	      0.16265628	      0.05000001	      0.08684413	      0.05000000	      0.18447639	      0.10516624	      0.06222210
      1.02000000	    -43.69508605	      9.06718424	     38.10445841	     21.34497626	      0.08575965	      0.11563266	      0.06125679	      0.07331860	      0.05907259	      0.06842652	      0.05000000	      0.15333667	      0.05000001	      0.16263087	      0.05000001	      0.08684396	      0.05000000	      0.18446008	      0.10497418	      0.06226675
      1.02100000	    -43.65685591	      9.08859010	     38.25829554	     21.41877747	      0.08560578	      0.11565504	      0.06120437	      0.07332728	      0.05900363	      0.06843498	      0.05000000	      0.15332501	      0.05000001	      0.16260522	      0.05000001	      0.08684378	      0.05000000	      0.18444361	      0.10475957	      0.06231184
      1.02200000	    -43.61853380	      9.11003865	     38.41302930	     21.49080633	      0.08545460	      0.11567746	      0.06115415	      0.07333597	      0.05893355	      0.06844346	      0.05000000	      0.15331333	      0.05000001	      0.16257950	      0.05000001	      0.08684360	      0.05000000	      0.18442709	      0.10454493	      0.06235705
      1.02300000	    -43.58005016	      9.13156220	     38.56933774	     21.55972254	      0.08530813	      0.11569994	      0.06110781	      0.07334465	      0.05886147	      0.06845200	      0.05000000	      0.15330159	      0.05000001	      0.16255368	      0.05000001	      0.08684342	      0.05000000	      0.18441049	      0.10433026	      0.06240249
      1.02400000	    -43.54129176	      9.15319368	     38.72928592	     21.62098034	      0.08516563	      0.11572256	      0.06106264	      0.07335334	      0.05879120	      0.06846061	      0.05000000	      0.15328975	      0.05000001	      0.16252769	      0.05000001	      0.08684323	      0.05000000	      0.18439378	      0.10412169	      0.06244823
      1.02500000	    -43.50242946	      9.17486598	     38.89061034	     21.67934241	      0.08502463	      0.11574521	      0.06101790	      0.07336203	      0.05872162	      0.06846924	      0.05000000	      0.15327789	      0.05000001	      0.16250162	      0.05000001	      0.08684304	      0.05000000	      0.18437701	      0.10391545	      0.06249408
      1.02600000	    -43.46356716	      9.19653828	     39.05193475	     21.73770448	      0.08488364	      0.11576787	      0.06097317	      0.07337073	      0.05865204	      0.06847788	      0.05000000	      0.15326603	      0.05000001	      0.16247556	      0.05000001	      0.08684285	      0.05000000	      0.18436025	      0.10370920	      0.06253993
      1.02700000	    -43.42444875	      9.21829820	     39.21442050	     21.79342439	      0.08474613	      0.11579065	      0.06092947	      0.07337944	      0.05858407	      0.06848657	      0.05000000	      0.15325408	      0.05000001	      0.16244933	      0.05000001	      0.08684265	      0.05000000	      0.18434337	      0.10350831	      0.06258606
      1.02800000	    -43.38516626	      9.24011425	     39.37765017	     21.84745178	      0.08461085	      0.11581350	      0.06088643	      0.07338815	      0.05851711	      0.06849529	      0.05000000	      0.15324208	      0.05000001	      0.16242300	      0.05000001	      0.08684245	      0.05000000	      0.18432641	      0.10331087	      0.06263237
      1.02900000	    -43.34575026	      9.26197456	     39.54064434	     21.90178756	      0.08447733	      0.11583642	      0.06084390	      0.07339688	      0.05845097	      0.06850404	      0.05000000	      0.15323004	      0.05000001	      0.16239659	      0.05000001	      0.08684225	      0.05000000	      0.18430939	      0.10311611	      0.06267883
      1.03000000	    -43.30614528	      9.28390280	     39.69712454	     21.96962956	      0.08434630	      0.11585943	      0.06080212	      0.07340562	      0.05838597	      0.06851282	      0.05000000	      0.15321794	      0.05000001	      0.16237006	      0.05000001	      0.08684204	      0.05000000	      0.18429220	      0.10292517	      0.06272550
      1.03100000	    -43.26636752	      9.30590798	     39.85370292	     22.03690436	      0.08416735	      0.11588257	      0.06070588	      0.07341441	      0.05832204	      0.06852163	      0.05000000	      0.15320578	      0.05000001	      0.16234341	      0.05000001	      0.08684183	      0.05000000	      0.18427493	      0.10272370	      0.06277237
      1.03200000	    -43.22624989	      9.32804245	     40.01451466	     22.09501738	      0.08399125	      0.11590603	      0.06060920	      0.07342334	      0.05826008	      0.06853049	      0.05000000	      0.15319352	      0.05000001	      0.16231655	      0.05000001	      0.08684161	      0.05000000	      0.18425757	      0.10252840	      0.06281964
      1.03300000	    -43.18611463	      9.35018353	     40.17552314	     22.15270594	      0.08381547	      0.11592951	      0.06051268	      0.07343228	      0.05819823	      0.06853935	      0.05000000	      0.15318124	      0.05000001	      0.16228968	      0.05000001	      0.08684139	      0.05000000	      0.18424019	      0.10233348	      0.06286692
      1.03400000	    -43.14597936	      9.37232462	     40.33653161	     22.21039450	      0.08363969	      0.11595299	      0.06041616	      0.07344123	      0.05813638	      0.06854821	      0.05000000	      0.15316897	      0.05000001	      0.16226280	      0.05000001	      0.08684118	      0.05000000	      0.18422282	      0.10213855	      0.06291421
      1.03500000	    -43.10560357	      9.39455289	     40.49638967	     22.27073746	      0.08346804	      0.11597666	      0.06032177	      0.07345025	      0.05807588	      0.06855711	      0.05000000	      0.15315662	      0.05000001	      0.16223578	      0.05000001	      0.08684095	      0.05000000	      0.18420535	      0.10194841	      0.06296176
      1.03600000	    -43.06502262	      9.41685553	     40.65526647	     22.33334450	      0.08329993	      0.11600049	      0.06022919	      0.07345935	      0.05801652	      0.06856604	      0.05000000	      0.15314420	      0.05000001	      0.16220862	      0.05000001	      0.08684072	      0.05000000	      0.18418779	      0.10176235	      0.06300956
      1.03700000	    -43.02430647	      9.43921538	     40.81262057	     22.39939316	      0.08313408	      0.11602441	      0.06013778	      0.07346847	      0.05795792	      0.06857498	      0.05000000	      0.15313174	      0.05000001	      0.16218138	      0.05000001	      0.08684049	      0.05000000	      0.18417016	      0.10157892	      0.06305750
      1.03800000	    -42.98338964	      9.46166015	     40.96771448	     22.47055034	      0.08297162	      0.11604847	      0.06004812	      0.07347765	      0.05790041	      0.06858395	      0.05000000	      0.15311921	      0.05000001	      0.16215400	      0.05000001	      0.08684026	      0.05000000	      0.18415245	      0.10139939	      0.06310566
      1.03900000	    -42.94240366	      9.48413897	     41.12165164	     22.54426242	      0.08281032	      0.11607258	      0.05995906	      0.07348685	      0.05784329	      0.06859293	      0.05000000	      0.15310666	      0.05000001	      0.16212658	      0.05000001	      0.08684002	      0.05000000	      0.18413469	      0.10122120	      0.06315389
      1.04000000	    -42.90122628	      9.50671210	     41.27238640	     22.62504757	      0.08265222	      0.11609681	      0.05987165	      0.07349609	      0.05778722	      0.06860194	      0.05000000	      0.15309404	      0.05000001	      0.16209903	      0.05000001	      0.08683978	      0.05000000	      0.18411685	      0.10104672	      0.06320233
      1.04100000	    -42.85984193	      9.52940229	     41.42069607	     22.71118521	      0.08249414	      0.11612119	      0.05981040	      0.07350536	      0.05773229	      0.06861098	      0.05000000	      0.15308134	      0.05000001	      0.16207134	      0.05000001	      0.08683953	      0.05000000	      0.18409891	      0.10084394	      0.06325104
      1.04200000	    -42.81834764	      9.55215560	     41.56970699	     22.79586756	      0.08233758	      0.11614563	      0.05975216	      0.07351464	      0.05767795	      0.06862003	      0.05000000	      0.15306861	      0.05000001	      0.16204358	      0.05000001	      0.08683928	      0.05000000	      0.18408092	      0.10064054	      0.06329991
